
<svg xmlns="http://www.w3.org/2000/svg" width="3038" height="1425" viewBox="0 0 3038 1425">
  <defs>
    <style>
      .cls-1 {
        fill: #fff;
        fill-rule: evenodd;
      }
    </style>
  </defs>
  <path id="Forma_3" data-name="Forma 3" class="cls-1" d="M2753,908c-2.92,39.169,1.11,182.49-67,59-47.6-112.1-82.31-181.054-98-191-6.57-4.251-4,5-4,5s72.29,164.651-13,203c-16.92,9.871-67.43,17.48-102-41-3.81-4.944-14.22-12.341-13,13-2.2,13.951-24.64,67.15-59-9-14.99-71.594-43.12-214.79-49-158s-9,173-9,173-38.15,53.71-46-21-19.52-280.3-53-157c-22.09,87.989-38.47,256.63-77,137-13.46-68.376-31.57-125.5-51-122-8.04-1.052-12.91,44.918-76,88-1.55,20.3-2,114-2,114s-34.61,73.93-45-105c-0.13-18.316-.8-21.473-13,12-8.78,18.665-63.1,103.75-114-6-24.69-81.27-54.08-219.538-73-143-7.53,42.365-17.59,62.493-8,139,5.03,24.109-3.84,140.07-41-21-10.95-51.714-31.22-126.433-49-68-14.36,36.79-43.15,222.64-141,87-6.69-17.177-90.71,138.49-190,43-36.62-45.368-67.59-82.469-88-212-7.88-14.483-26.8-45.651-35,36-5.92,39.5-5.97,306.81-135,221-24.19-24.3-46.76-68.15-52-28-0.68,18.507-5.41,71.28-68,13-23.841-42.335-48.531-86.922-51-125-7.027,26.85-26.8,231.18-134,133-14.9-19.579-22.31-43.03-30-37s-59.275,109.07-101,8c-12.1-27.03-12-28-12-28s-64.787,108.8-135,64c-14.376-16.328-15.694-8.744-27-45-3.329-11.2-9.624-30.289-23,14-8.818,24.924-89.717,162.18-141,44-21.655-65.778-38-164-38-164s-31.3-142.644-73-86c-9.795,25.888-53.919,160.379-75,59,0,0,15.262-100.585,78-112,3.561,0.5,44.469-9.091,83,57,2.794,6.14,16.9,21.984,28,83,6.028,29.312,16.445,77.72,18,96,1.977,14.9,2.805,41.448,10,51,5.5,7.016,31.583,38.28,49,15,10.2-14.614,23.478-16.906,30-109,5.183-87.409,7.5-183.9,5-223s-13.239-115.028-25-186c-5.734-37.5-9.032-54.407,4-57,11.693,0.084,27.444-7.678,42,29,3.173,18.607,45.677,240.267,38,347-1.358,43.54-.308,127.758,28,146,6.007,6.733,55.048,38.506,87-86,3.176-18.764,12.176-93.527,3-127,9.528-3.98,32-10,32-10s13.813,120.512,32,178c7.4,23.679,33.211,99.818,48,6,14.07-76.554,31.174-195.513,96-172,5.116,3.372,24.567,12.117,17,34-3.251,1.022-39.514-13.326-48,46-2.011,24.8-13.382,114.932,20,140,8.2,9.962,46.98,66.31,65-32,15.143-85.36,39.547-182.2,9-287-3.21-12-4.734-22.787-18-12s-82,57-82,57-52.667,33.564-47-11c13.58-10.755,136-109,136-109l-16-72s-8.221-24.4,23-18c2.733,7.194,6.4-1.79,20,66,3.308,6.866,3.572,25.971,62-18,33.9-18.652,81-42,81-42s12.34-9.81,21,4c1.54,6.689,17.57,17.418-68,71-68.952,40.131-77.048,38.55-73,52,3.257,23.736,54.279,248.974,73,291,8.28,26.367,24.75,77.237,28,9,3.25-49.446,11.03-228.488,98-211,12.82,2.872,50.85,13.611,71,50,4.48-15.809,11-105.477,61-81,15.54,10.9,40.82,19.424,71,130,15.56,43.763,45.19,153.248,104,134,19.12-5.677,60.22-2.993,71-127-1.75-35.27-10.68-110.861-13-119-2.32-9.182,6.46-17.6,24-16,8.14,1.6,10.95-9.774,32,93,10.6,58.927,43.41,213.27,74,110,9.71-60.468,38.4-228.785,117-106,8.63,14.213,14.57,27.3,21-21,4.34-14.9,30.12-102.664,106,31,17.39,35.532,43.01,107.2,49,122s20.06,65.182,36-31c5.5-28.325,13.55-95.827,0-167-2.52-18.8,19.38-38.776,36,16,11.1,41,29,97,29,97s5.6,32.677,29-22c24.78-58.812,43.3-83.912,43-132,1.08-24.66-3.67-59.206,18-44,14.78,16.584,30.87,29.754,18,141,5.05,9.264,52.65,29.913,64,63,30.65-74.409,44.09-175.343,107-81,9.35,24.859,18.67,36.6,18-8,5.03-16.122,24.6-86.027,98,56,11.86,49.76,28.51,172.2,35,62-6.04-35.021-55.79-175.746,95-135,9.49,12.269,5.44-.945,20,33-23.04-57.182-51.03-112.262,0-87,14.56,26.4,147,267,147,267s24.67,53.867,13-61c-10.53-122.841-29-255-29-255s-9.75-14.329,30-10C2731.84,603.164,2770.74,641.013,2753,908ZM1150,759c-44.33-20.319-51,50-51,50-0.92,58.839,42.91,29.157,51,19C1187.52,793.02,1158.46,764.609,1150,759Zm-5,118c-32.52,12.641-38,14-38,14s-16.48,4.742,1,36c0,0,27.14,77.15,48,13C1169.5,908.028,1200.52,852.407,1145,877Zm1408-96s-21.31-59.014-55-30c-10.08,7.09-39.28,41.8,12,86C2521.65,842.41,2579.14,856.888,2553,781Zm-56,97s-13.91,46.191,45,58c13.38,2.534,32.5,4.8,28-25C2571.4,887.943,2580.48,879.686,2497,878ZM1550,598c-1.36,5.381-14.99,35.288-28,24-7.02-2.29-14.32-2.379-20-7-10.34-5.287-24.67-11-31-33,0,0-11.99-39.733,9-50,8.32-5.6,10.34-6.068,12-11,1.99-1.933,6-1,6-1a30.2,30.2,0,0,0,10-10c3.32-1.264,28.69-9.719,38,31,0.64,9.726-1.31,20.276,8,20,1.31-.276,6,6,6,6l-8,11S1549.69,582.622,1550,598ZM616,696c-9.151-7.567-31-43-31-43s-4.705-9.35,2-24c0,0,12.231-28.831,22-32,5.547-3.169,7.5-3.409,10-9,1.755-.377,2.352-2.521,10,6,4.172,5.79,13.506,16.057,22,18,1.541,2.191,5.036,1.4,9,27,2.226,18.892,6.345,43.461-9,57C646.581,699.607,636.325,712.505,616,696Z"/>
</svg>