<svg xmlns="http://www.w3.org/2000/svg" width="4100" height="4100" viewBox="0 0 4100 4100">
  <defs>
    <style>
      .cls-1 {
        fill: #019cde;
      }

      .cls-2 {
        fill: #fff;
        fill-rule: evenodd;
      }
    </style>
  </defs>
  <circle id="Elipse_1" data-name="Elipse 1" class="cls-1" cx="1276" cy="2700" r="276"/>
  <path id="Elipse_2" data-name="Elipse 2" class="cls-2" d="M3495,3563H3278V3384.17C3135.75,3496.27,2957.28,3563,2763.5,3563c-464.75,0-841.5-383.69-841.5-857s376.75-857,841.5-857c184.8,0,355.68,60.67,494.5,163.51V823h488V3563H3495ZM2861,2256c-240.24,0-435,200.8-435,448.5S2620.76,3153,2861,3153s435-200.8,435-448.5S3101.24,2256,2861,2256Zm-1613-87c-70.19-.33-164.27,14.03-200,32-35.38,17.62-189.542,83.41-273,250-6.65,16.1-71.94,148.92-42,294,2.986,23.73,23.548,187.37,118,302,15.215,19.14,122.4,174.25,418,177,46.37-1.99,226.92,3.88,403-202l250,233s-244.92,301.07-645,301.07c-346.276,0-565.386-117.28-727-292.07-17.257-19.72-95.818-95.68-155-258-24.491-80.45-44.047-146.31-51-241-4.009-82.5-20.087-259.52,84-470,16.041-30.7,91.751-201.48,344-347,48.888-23.35,267.75-143.5,613-100,33.08,4.71,354.05,39.69,534,285-50.66,45.76-252,229-252,229S1547.09,2168.28,1248,2169Z"/>
</svg>
